<svg width="40" height="40" viewBox="0 0 40 40" fill="none" xmlns="http://www.w3.org/2000/svg">
<path d="M36.6144 11.475C36.8978 12.2409 36.0273 14.028 34.0029 16.8363C33.7195 17.2192 33.3551 17.7298 32.9097 18.3681C31.9785 19.5594 31.4522 20.3466 31.3307 20.7295C31.1283 21.2401 31.2092 21.7295 31.5736 22.1975C31.7761 22.4528 32.2417 22.9634 32.9705 23.7293H33.0312V23.7931C34.6912 25.3674 35.8046 26.7077 36.3714 27.814L36.4929 28.0693L36.6144 28.548V29.1543L36.1893 29.633L35.1568 29.8564L30.7234 29.984C30.44 30.0266 30.1059 29.984 29.7213 29.8564C29.3367 29.7287 29.0431 29.6011 28.8407 29.4735L28.4763 29.2182C28.1119 28.9629 27.707 28.5799 27.2617 28.0693C26.8163 27.5587 26.4215 27.0907 26.0774 26.6652C25.7332 26.2397 25.379 25.8887 25.0146 25.6121C24.6502 25.3355 24.3263 25.2398 24.0429 25.3249C24.0024 25.3249 23.9518 25.3462 23.891 25.3887C23.8303 25.4313 23.7291 25.527 23.5874 25.6759C23.4457 25.8248 23.3242 26.0057 23.223 26.2184C23.1218 26.4312 23.0307 26.7397 22.9497 27.1439C22.8687 27.5481 22.8282 28.0268 22.8282 28.5799C22.8282 28.7501 22.808 28.9097 22.7675 29.0586C22.727 29.2075 22.6865 29.3245 22.646 29.4096L22.5853 29.4735C22.3424 29.7287 22.0185 29.8564 21.6136 29.8564H19.6702C18.8199 29.9415 17.9595 29.8564 17.089 29.6011C16.2186 29.3458 15.4594 29.016 14.8116 28.6118C14.1638 28.2076 13.5767 27.8034 13.0504 27.3992C12.524 26.9949 12.1191 26.6439 11.8357 26.3461L11.4106 25.8993C11.2891 25.8142 11.1272 25.644 10.9247 25.3887C10.7223 25.1334 10.3073 24.5803 9.67974 23.7293C9.05218 22.8783 8.43474 21.9635 7.82742 20.9848C7.2201 20.0062 6.51156 18.7191 5.7018 17.1235C4.89204 15.5279 4.14301 13.8791 3.45472 12.1771C3.37374 11.9644 3.33325 11.7942 3.33325 11.6665C3.33325 11.5389 3.3535 11.4325 3.39398 11.3474L3.45472 11.2836C3.61667 11.0283 3.94057 10.9006 4.42643 10.9006H9.22425C9.34572 10.9006 9.46718 10.9325 9.58865 10.9964L9.89231 11.1559L9.95304 11.2198C10.1555 11.3474 10.2972 11.5389 10.3782 11.7942C10.6211 12.3899 10.8944 13.0175 11.198 13.677C11.5017 14.3365 11.7345 14.8365 11.8965 15.1768L12.1394 15.6874C12.5038 16.4108 12.8378 17.0384 13.1415 17.5703C13.4451 18.1021 13.7184 18.517 13.9613 18.8148C14.2043 19.1127 14.4472 19.3467 14.6901 19.5169C14.9331 19.6871 15.1355 19.7722 15.2975 19.7722C15.4594 19.7722 15.6214 19.7509 15.7833 19.7084L15.844 19.6126L16.0566 19.1978L16.2995 18.3681L16.4514 16.9001V14.6024C16.4109 14.1344 16.3501 13.6983 16.2692 13.294C16.1882 12.8898 16.1072 12.6026 16.0262 12.4324L15.9655 12.2409C15.6821 11.8154 15.176 11.5389 14.4472 11.4112C14.3257 11.4112 14.3662 11.2623 14.5687 10.9645C14.7711 10.7517 14.9938 10.5815 15.2367 10.4539C15.844 10.1135 17.2206 9.96454 19.3665 10.0071C20.2977 10.0071 21.0872 10.0922 21.735 10.2624C21.9375 10.3049 22.1197 10.3794 22.2816 10.4858C22.4436 10.5921 22.565 10.7411 22.646 10.9325C22.727 11.124 22.7877 11.3155 22.8282 11.507C22.8687 11.6984 22.889 11.975 22.889 12.3367V13.3259C22.8485 13.6663 22.8282 14.0918 22.8282 14.6024V16.1342C22.8282 16.2619 22.8181 16.5172 22.7979 16.9001C22.7776 17.283 22.7675 17.5809 22.7675 17.7936C22.7675 18.0064 22.7877 18.251 22.8282 18.5276C22.8687 18.8042 22.9396 19.0382 23.0408 19.2297C23.142 19.4212 23.2736 19.5594 23.4355 19.6445C23.5165 19.6871 23.6076 19.719 23.7088 19.7403C23.8101 19.7615 23.9619 19.6977 24.1643 19.5488C24.3668 19.3999 24.5894 19.1871 24.8324 18.9106C25.0753 18.634 25.379 18.2191 25.7434 17.666C26.1077 17.1128 26.4924 16.4746 26.8973 15.7513C27.5856 14.4748 28.2131 13.0919 28.78 11.6027C28.8204 11.5176 28.871 11.4219 28.9318 11.3155C28.9925 11.2091 29.0634 11.1347 29.1443 11.0921H29.2051L29.2658 11.0283L29.5087 10.9645H29.8731L34.8531 10.9006C35.2985 10.8581 35.673 10.8794 35.9767 10.9645C36.2803 11.0496 36.4524 11.1559 36.4929 11.2836L36.6144 11.475Z" fill="#B59571"/>
</svg>
