<svg width="40" height="40" viewBox="0 0 40 40" fill="none" xmlns="http://www.w3.org/2000/svg">
<path d="M35.9686 12.3729C35.7799 11.6998 35.4124 11.0904 34.905 10.6094C34.3833 10.1137 33.7439 9.75912 33.0471 9.57911C30.4394 8.89177 19.9918 8.89177 19.9918 8.89177C15.6363 8.84222 11.2819 9.06017 6.95311 9.5444C6.25632 9.73771 5.61809 10.1002 5.09521 10.5997C4.58144 11.094 4.2093 11.7036 4.0149 12.3715C3.54792 14.8873 3.32103 17.4417 3.33728 20.0003C3.32062 22.5567 3.54696 25.1103 4.0149 27.6291C4.20514 28.2942 4.57589 28.901 5.09104 29.3912C5.6062 29.8814 6.24772 30.2355 6.95311 30.4229C9.59556 31.1089 19.9918 31.1089 19.9918 31.1089C24.3528 31.1585 28.7128 30.9405 33.0471 30.4562C33.7439 30.2762 34.3833 29.9216 34.905 29.4259C35.4188 28.9358 35.784 28.3262 35.9673 27.6624C36.4464 25.1477 36.6794 22.5922 36.6629 20.0323C36.699 17.4615 36.4663 14.894 35.9686 12.3715V12.3729ZM16.6703 24.7548V15.2473L25.3628 20.0017L16.6703 24.7548Z" fill="#B59571"/>
</svg>
