<svg width="26" height="26" viewBox="0 0 26 26" fill="none" xmlns="http://www.w3.org/2000/svg">
<path d="M26 11.2446V11.9615C26 12.5554 25.515 13.0369 24.9167 13.0369H24.5556L23.3768 21.2271C23.2244 22.2866 22.3102 23.0737 21.232 23.0737H4.76802C3.68979 23.0737 2.77564 22.2866 2.62311 21.2271L1.44444 13.0369H1.08333C0.485017 13.0369 0 12.5554 0 11.9615V11.2446C0 10.6507 0.485017 10.1692 1.08333 10.1692H4.12303L8.94296 3.59064C9.41218 2.95026 10.3155 2.80862 10.9607 3.27439C11.6059 3.74016 11.7485 4.63688 11.2793 5.27731L7.69514 10.1692H18.3049L14.7207 5.27726C14.2515 4.63688 14.3942 3.74011 15.0393 3.27435C15.6844 2.80858 16.5879 2.95017 17.0571 3.59059L21.877 10.1692H24.9167C25.515 10.1692 26 10.6507 26 11.2446ZM14.0833 19.1306V14.1123C14.0833 13.5183 13.5983 13.0369 13 13.0369C12.4017 13.0369 11.9167 13.5183 11.9167 14.1123V19.1306C11.9167 19.7246 12.4017 20.206 13 20.206C13.5983 20.206 14.0833 19.7246 14.0833 19.1306ZM19.1389 19.1306V14.1123C19.1389 13.5183 18.6539 13.0369 18.0556 13.0369C17.4572 13.0369 16.9722 13.5183 16.9722 14.1123V19.1306C16.9722 19.7246 17.4572 20.206 18.0556 20.206C18.6539 20.206 19.1389 19.7246 19.1389 19.1306ZM9.02778 19.1306V14.1123C9.02778 13.5183 8.54276 13.0369 7.94444 13.0369C7.34613 13.0369 6.86111 13.5183 6.86111 14.1123V19.1306C6.86111 19.7246 7.34613 20.206 7.94444 20.206C8.54276 20.206 9.02778 19.7246 9.02778 19.1306Z" fill="#333333"/>
</svg>
