<svg width="26" height="26" viewBox="0 0 26 26" fill="none" xmlns="http://www.w3.org/2000/svg">
<path d="M12.9997 4.33331C14.1489 4.33331 15.2511 4.78986 16.0638 5.60252C16.8765 6.41517 17.333 7.51737 17.333 8.66665C17.333 9.81592 16.8765 10.9181 16.0638 11.7308C15.2511 12.5434 14.1489 13 12.9997 13C11.8504 13 10.7482 12.5434 9.93554 11.7308C9.12289 10.9181 8.66634 9.81592 8.66634 8.66665C8.66634 7.51737 9.12289 6.41517 9.93554 5.60252C10.7482 4.78986 11.8504 4.33331 12.9997 4.33331ZM12.9997 15.1666C17.788 15.1666 21.6663 17.1058 21.6663 19.5V21.6666H4.33301V19.5C4.33301 17.1058 8.21134 15.1666 12.9997 15.1666Z" fill="#333333"/>
</svg>
